<?xml version="1.0" standalone="no"?><!DOCTYPE svg PUBLIC "-//W3C//DTD SVG 1.1//EN" "http://www.w3.org/Graphics/SVG/1.1/DTD/svg11.dtd"><svg t="1739276919494" class="icon" viewBox="0 0 1024 1024" version="1.1" xmlns="http://www.w3.org/2000/svg" p-id="4190" xmlns:xlink="http://www.w3.org/1999/xlink" width="200" height="200"><path d="M512 1023.998976a510.41229 510.41229 0 1 1 199.287267-40.226093A508.876291 508.876291 0 0 1 512 1023.998976z m98.457502-492.304574a78.847921 78.847921 0 0 0-78.762588 78.762588v78.779654A78.847921 78.847921 0 0 0 610.457502 767.999232h78.762587a78.847921 78.847921 0 0 0 78.762588-78.762588v-78.779654a78.847921 78.847921 0 0 0-78.762588-78.762588z m-275.694658 0A78.847921 78.847921 0 0 0 256.000256 610.45699v78.779654A78.847921 78.847921 0 0 0 334.762844 767.999232h78.779654a78.847921 78.847921 0 0 0 78.762588-78.762588v-78.779654a78.847921 78.847921 0 0 0-78.762588-78.762588zM610.457502 255.999744a78.864988 78.864988 0 0 0-78.762588 78.779655v78.762587a78.847921 78.847921 0 0 0 78.762588 78.762588h78.762587a78.847921 78.847921 0 0 0 78.762588-78.762588v-78.762587A78.864988 78.864988 0 0 0 689.220089 255.999744z m-275.694658 0A78.864988 78.864988 0 0 0 256.000256 334.779399v78.762587a78.847921 78.847921 0 0 0 78.762588 78.762588h78.779654a78.847921 78.847921 0 0 0 78.762588-78.762588v-78.762587A78.864988 78.864988 0 0 0 413.542498 255.999744z m354.457245 472.626727h-78.762587a39.423961 39.423961 0 0 1-39.389828-39.389827v-78.779654a39.423961 39.423961 0 0 1 39.389828-39.389828h78.762587a39.423961 39.423961 0 0 1 39.389828 39.389828v78.779654a39.423961 39.423961 0 0 1-39.389828 39.389827z m-275.677591 0h-78.779654a39.423961 39.423961 0 0 1-39.389827-39.389827v-78.779654a39.423961 39.423961 0 0 1 39.389827-39.389828h78.779654a39.423961 39.423961 0 0 1 39.389828 39.389828v78.779654a39.423961 39.423961 0 0 1-39.389828 39.389827z m275.677591-275.694657h-78.762587a39.423961 39.423961 0 0 1-39.389828-39.372761v-78.762588a39.423961 39.423961 0 0 1 39.389828-39.389827h78.762587a39.423961 39.423961 0 0 1 39.389828 39.389827v78.762588a39.423961 39.423961 0 0 1-39.389828 39.355694z m-275.677591 0h-78.779654a39.423961 39.423961 0 0 1-39.389827-39.372761v-78.762588a39.423961 39.423961 0 0 1 39.389827-39.389827h78.779654a39.423961 39.423961 0 0 1 39.389828 39.389827v78.762588a39.423961 39.423961 0 0 1-39.389828 39.355694z" fill="#e6e6e6" p-id="4191"></path></svg>