<?xml version="1.0" standalone="no"?><!DOCTYPE svg PUBLIC "-//W3C//DTD SVG 1.1//EN" "http://www.w3.org/Graphics/SVG/1.1/DTD/svg11.dtd"><svg t="1710767741874" class="icon" viewBox="0 0 1024 1024" version="1.1" xmlns="http://www.w3.org/2000/svg" p-id="8245" xmlns:xlink="http://www.w3.org/1999/xlink" width="200" height="200"><path d="M454.4 752h19.2c9.6 0 16-6.4 16-16v-243.2c32-9.6 54.4-41.6 54.4-76.8 0-35.2-22.4-64-54.4-76.8V288c0-9.6-6.4-16-16-16h-19.2c-9.6 0-16 6.4-16 16v51.2c-32 12.8-54.4 41.6-54.4 76.8 0 35.2 22.4 64 54.4 76.8V736c0 9.6 9.6 16 16 16z m-32-336c0-22.4 19.2-41.6 41.6-41.6s41.6 19.2 41.6 41.6c0 22.4-19.2 41.6-41.6 41.6s-41.6-19.2-41.6-41.6zM294.4 752h19.2c9.6 0 16-6.4 16-16v-83.2c32-9.6 54.4-41.6 54.4-76.8 0-35.2-22.4-64-54.4-76.8V288c0-9.6-6.4-16-16-16h-19.2c-6.4 0-16 6.4-16 16v211.2C246.4 512 224 540.8 224 576c0 35.2 22.4 64 54.4 76.8V736c0 9.6 9.6 16 16 16z m-32-176c0-22.4 19.2-41.6 41.6-41.6s41.6 19.2 41.6 41.6c0 22.4-19.2 41.6-41.6 41.6s-41.6-19.2-41.6-41.6zM579.2 633.6v188.8l163.2-92.8 166.4-288-163.2-92.8-166.4 284.8z m41.6 121.6v-112l6.4-9.6 96 54.4-6.4 9.6-96 57.6z m236.8-300.8L736 662.4 640 608l121.6-208 96 54.4zM928 281.6l-51.2-28.8c-9.6-6.4-22.4-9.6-32-9.6-22.4 0-44.8 12.8-54.4 32l-35.2 60.8 163.2 92.8 35.2-60.8c12.8-28.8 3.2-67.2-25.6-86.4z m-9.6 70.4l-16 28.8-96-54.4 16-28.8c3.2-6.4 12.8-12.8 22.4-12.8 3.2 0 9.6 0 12.8 3.2l51.2 28.8c9.6 6.4 16 22.4 9.6 35.2z" fill="#333332" p-id="8246"></path><path d="M716.8 832c0 16-12.8 28.8-28.8 28.8H147.2c-16 0-28.8-12.8-28.8-28.8V192c0-16 12.8-28.8 28.8-28.8h540.8c16 0 28.8 12.8 28.8 28.8v108.8L768 211.2V192c0-44.8-35.2-80-80-80H147.2C102.4 112 64 147.2 64 192v640c0 44.8 35.2 80 80 80h540.8c44.8 0 80-35.2 80-80v-54.4l-51.2 28.8v25.6z" fill="#333332" p-id="8247"></path></svg>