<?xml version="1.0" standalone="no"?><!DOCTYPE svg PUBLIC "-//W3C//DTD SVG 1.1//EN" "http://www.w3.org/Graphics/SVG/1.1/DTD/svg11.dtd"><svg t="1710063000819" class="icon" viewBox="0 0 1024 1024" version="1.1" xmlns="http://www.w3.org/2000/svg" p-id="7162" xmlns:xlink="http://www.w3.org/1999/xlink" width="200" height="200"><path d="M349.92 895.06c-6.76 0-13.47-2.92-18.1-8.55L81.36 581.53c-19.5-23.75-19.89-57.23-0.94-81.4l233.61-298.16c7.97-10.18 22.67-11.96 32.85-3.99 10.17 7.97 11.96 22.68 3.99 32.85L117.25 528.99c-5.31 6.78-5.2 16.17 0.27 22.83L367.99 856.8c8.2 9.99 6.76 24.74-3.23 32.94a23.312 23.312 0 0 1-14.84 5.32zM677.23 895.06c-5.23 0-10.48-1.74-14.84-5.32-9.99-8.2-11.43-22.95-3.23-32.94l250.46-304.98c5.47-6.66 5.58-16.05 0.27-22.83l-233.6-298.15c-7.97-10.17-6.19-24.88 3.99-32.85 10.18-7.97 24.88-6.19 32.85 3.99l233.61 298.16c18.95 24.18 18.56 57.65-0.94 81.4L695.33 886.51c-4.63 5.63-11.33 8.55-18.1 8.55zM428.36 895.07c-1.95 0-3.93-0.25-5.91-0.76-12.51-3.25-20.01-16.03-16.75-28.54l170.47-655.25c3.26-12.51 16.03-19.99 28.54-16.76 12.51 3.25 20.01 16.03 16.75 28.54L450.98 877.55c-2.73 10.54-12.23 17.52-22.62 17.52z" p-id="7163"></path></svg>