<?xml version="1.0" standalone="no"?><!DOCTYPE svg PUBLIC "-//W3C//DTD SVG 1.1//EN" "http://www.w3.org/Graphics/SVG/1.1/DTD/svg11.dtd"><svg t="1710059624971" class="icon" viewBox="0 0 1025 1024" version="1.1" xmlns="http://www.w3.org/2000/svg" p-id="5174" xmlns:xlink="http://www.w3.org/1999/xlink" width="200.1953125" height="200"><path d="M900.70711 378.107569a179.653234 179.653234 0 0 1-254.346019 0 185.023303 185.023303 0 0 1-32.708605-44.913308 179.653234 179.653234 0 0 1 162.566649-262.157029l-108.377766 108.377766a70.299092 70.299092 0 0 0 0 97.637627l77.621914 79.574666a70.299092 70.299092 0 0 0 97.637627 0l108.865954-108.377766a179.653234 179.653234 0 0 1-51.259754 129.858044z m-439.369322 261.180653a252.393266 252.393266 0 0 0-76.645537-77.621914l177.212293-177.212293a252.393266 252.393266 0 0 0 77.621914 77.621914z m-83.480171 261.180652a179.653234 179.653234 0 0 1-130.346232 52.724319l108.865954-108.865954a70.299092 70.299092 0 0 0 0-97.637627l-77.621914-79.574667a70.299092 70.299092 0 0 0-97.637627 0l-110.818706 108.865955a180.141422 180.141422 0 0 1 307.070337-129.858044 185.023303 185.023303 0 0 1 32.708605 44.913308 179.653234 179.653234 0 0 1-32.220417 209.43271zM984.187281 114.974164l-190.393373 190.393373-77.621913-77.621914L906.077179 37.840439a250.440514 250.440514 0 0 0-374.440299 276.802673l-216.267344 216.755532a250.440514 250.440514 0 0 0-277.290861 373.952112l189.905184-189.416997 77.621914 77.621914-190.393373 190.393372a250.440514 250.440514 0 0 0 377.857617-274.84992l216.267344-215.779156a250.440514 250.440514 0 0 0 275.338108-377.369429z" fill="#5E5C5C" p-id="5175"></path></svg>